<svg width="51" height="39" viewBox="0 0 51 39" fill="none" xmlns="http://www.w3.org/2000/svg">
<path id="Vector" d="M2.62516 38.2916H48.3752C48.8384 38.2902 49.2924 38.1624 49.6884 37.9221C50.0844 37.6818 50.4073 37.3381 50.6225 36.9279C50.8377 36.5177 50.9369 36.0566 50.9095 35.5942C50.8821 35.1318 50.7291 34.6857 50.4669 34.3038L27.5919 1.26209C26.6439 -0.10787 24.3615 -0.10787 23.4109 1.26209L0.535906 34.3038C0.271128 34.6849 0.115855 35.1312 0.0869593 35.5944C0.0580632 36.0576 0.156649 36.5198 0.372004 36.9308C0.58736 37.3419 0.911249 37.6861 1.30848 37.926C1.70571 38.1659 2.1611 38.2924 2.62516 38.2916Z" fill="#7F9972"/>
</svg>
